<mxfile host="app.diagrams.net" modified="2023-07-24T19:24:55.856Z" agent="Mozilla/5.0 (Windows NT 10.0; Win64; x64) AppleWebKit/537.36 (KHTML, like Gecko) Chrome/115.0.0.0 Safari/537.36" etag="_6Nu2BhLCiSZDyYg1InV" version="21.6.5" type="device">
  <diagram id="R2lEEEUBdFMjLlhIrx00" name="Page-1">
    <mxGraphModel dx="880" dy="522" grid="1" gridSize="10" guides="1" tooltips="1" connect="1" arrows="1" fold="1" page="1" pageScale="1" pageWidth="850" pageHeight="1100" math="0" shadow="0" extFonts="Permanent Marker^https://fonts.googleapis.com/css?family=Permanent+Marker">
      <root>
        <mxCell id="0" />
        <mxCell id="1" parent="0" />
        <mxCell id="UXnOD_pZGPyxFs4ZcDwk-1" value="Você deverá criar a modelagem para o catálogo de filmes, observando a seguinte situação:&#xa;&#xa;&#xa;- um filme possui apenas um único gênero.&#xa;- um gênero pode definir mais de um filme" style="text;whiteSpace=wrap;align=center;fontSize=14;" vertex="1" parent="1">
          <mxGeometry x="140" y="30" width="570" height="110" as="geometry" />
        </mxCell>
        <mxCell id="UXnOD_pZGPyxFs4ZcDwk-2" value="&lt;font style=&quot;font-size: 13px;&quot;&gt;Filme&lt;/font&gt;" style="rounded=0;whiteSpace=wrap;html=1;" vertex="1" parent="1">
          <mxGeometry x="160" y="300" width="140" height="70" as="geometry" />
        </mxCell>
        <mxCell id="UXnOD_pZGPyxFs4ZcDwk-3" value="&lt;font style=&quot;font-size: 13px;&quot;&gt;Gênero&lt;/font&gt;" style="rounded=0;whiteSpace=wrap;html=1;" vertex="1" parent="1">
          <mxGeometry x="560" y="300" width="140" height="70" as="geometry" />
        </mxCell>
        <mxCell id="UXnOD_pZGPyxFs4ZcDwk-9" style="edgeStyle=orthogonalEdgeStyle;rounded=0;orthogonalLoop=1;jettySize=auto;html=1;exitX=0.5;exitY=1;exitDx=0;exitDy=0;strokeWidth=1;endArrow=none;endFill=0;entryX=0.5;entryY=0;entryDx=0;entryDy=0;" edge="1" parent="1" source="UXnOD_pZGPyxFs4ZcDwk-5" target="UXnOD_pZGPyxFs4ZcDwk-2">
          <mxGeometry relative="1" as="geometry" />
        </mxCell>
        <mxCell id="UXnOD_pZGPyxFs4ZcDwk-5" value="&lt;font style=&quot;font-size: 13px;&quot;&gt;Nome&lt;/font&gt;" style="ellipse;whiteSpace=wrap;html=1;" vertex="1" parent="1">
          <mxGeometry x="185" y="180" width="90" height="50" as="geometry" />
        </mxCell>
        <mxCell id="UXnOD_pZGPyxFs4ZcDwk-17" style="edgeStyle=orthogonalEdgeStyle;rounded=0;orthogonalLoop=1;jettySize=auto;html=1;endArrow=none;endFill=0;" edge="1" parent="1" source="UXnOD_pZGPyxFs4ZcDwk-7" target="UXnOD_pZGPyxFs4ZcDwk-3">
          <mxGeometry relative="1" as="geometry" />
        </mxCell>
        <mxCell id="UXnOD_pZGPyxFs4ZcDwk-7" value="&lt;span style=&quot;font-size: 13px;&quot;&gt;Tipo&lt;/span&gt;" style="ellipse;whiteSpace=wrap;html=1;" vertex="1" parent="1">
          <mxGeometry x="585" y="180" width="90" height="50" as="geometry" />
        </mxCell>
        <mxCell id="UXnOD_pZGPyxFs4ZcDwk-12" style="edgeStyle=orthogonalEdgeStyle;rounded=0;orthogonalLoop=1;jettySize=auto;html=1;exitX=0;exitY=0.5;exitDx=0;exitDy=0;endArrow=none;endFill=0;" edge="1" parent="1" source="UXnOD_pZGPyxFs4ZcDwk-11" target="UXnOD_pZGPyxFs4ZcDwk-2">
          <mxGeometry relative="1" as="geometry" />
        </mxCell>
        <mxCell id="UXnOD_pZGPyxFs4ZcDwk-13" style="edgeStyle=orthogonalEdgeStyle;rounded=0;orthogonalLoop=1;jettySize=auto;html=1;entryX=0;entryY=0.5;entryDx=0;entryDy=0;endArrow=none;endFill=0;" edge="1" parent="1" source="UXnOD_pZGPyxFs4ZcDwk-11" target="UXnOD_pZGPyxFs4ZcDwk-3">
          <mxGeometry relative="1" as="geometry" />
        </mxCell>
        <mxCell id="UXnOD_pZGPyxFs4ZcDwk-11" value="&lt;font style=&quot;font-size: 13px;&quot;&gt;Possui&lt;/font&gt;" style="rhombus;whiteSpace=wrap;html=1;" vertex="1" parent="1">
          <mxGeometry x="380" y="295" width="80" height="80" as="geometry" />
        </mxCell>
        <mxCell id="UXnOD_pZGPyxFs4ZcDwk-15" value="N" style="text;html=1;align=center;verticalAlign=middle;resizable=0;points=[];autosize=1;strokeColor=none;fillColor=none;fontSize=13;" vertex="1" parent="1">
          <mxGeometry x="490" y="300" width="30" height="30" as="geometry" />
        </mxCell>
        <mxCell id="UXnOD_pZGPyxFs4ZcDwk-16" value="1" style="text;html=1;align=center;verticalAlign=middle;resizable=0;points=[];autosize=1;strokeColor=none;fillColor=none;fontSize=13;" vertex="1" parent="1">
          <mxGeometry x="330" y="300" width="30" height="30" as="geometry" />
        </mxCell>
        <mxCell id="UXnOD_pZGPyxFs4ZcDwk-18" value="&lt;font style=&quot;font-size: 13px;&quot;&gt;Relacionamento 1 : N&lt;/font&gt;" style="text;html=1;align=center;verticalAlign=middle;resizable=0;points=[];autosize=1;strokeColor=none;fillColor=none;" vertex="1" parent="1">
          <mxGeometry x="350" y="250" width="150" height="30" as="geometry" />
        </mxCell>
      </root>
    </mxGraphModel>
  </diagram>
</mxfile>
